<svg width="90" height="90" viewBox="0 0 90 90" fill="none" xmlns="http://www.w3.org/2000/svg">
<path d="M16.4441 61.1264V50.2393L39.6334 63.0249C41.937 64.3035 44.7012 64.3035 47.0048 63.0249L70.1941 50.2393V61.1264C70.1941 63.9548 68.6584 66.5894 66.2012 67.9455L47.0048 78.5227C44.7012 79.8013 41.937 79.8013 39.6334 78.5227L20.4369 67.9455C17.9798 66.5894 16.4441 63.9548 16.4441 61.1264Z" fill="#434D56"/>
<path d="M79.2439 37.3729V60.9551C79.2439 63.1497 80.7626 64.9454 82.6189 64.9454C84.4751 64.9454 85.9939 63.1497 85.9939 60.9551V35.3341C85.9939 34.1152 85.5761 34.0449 84.4511 32.876L79.2439 37.3729Z" fill="#FDD05A"/>
<path d="M39.4678 12.1952L6.52237 30.3107C3.82577 31.8072 3.82577 35.7454 6.52237 37.2419L39.4678 55.3574C41.8126 56.6569 44.6265 56.6569 46.9713 55.3574L78.3925 38.0689L85.7221 34.1926C85.3693 33.5504 84.8387 33.0095 84.1766 32.6342L46.9713 12.1952C44.6265 10.935 41.8126 10.935 39.4678 12.1952Z" fill="#434D56"/>
</svg>
