<svg width="73" height="61" viewBox="0 0 73 61" fill="none" xmlns="http://www.w3.org/2000/svg">
<path d="M10.6169 44.3347V34.6572L31.2296 46.0223C33.2772 47.1588 35.7343 47.1588 37.782 46.0223L58.3947 34.6572V44.3347C58.3947 46.8488 57.0296 49.1907 54.8455 50.3961L37.782 59.7981C35.7343 60.9346 33.2772 60.9346 31.2296 59.7981L14.1661 50.3961C11.982 49.1907 10.6169 46.8488 10.6169 44.3347Z" fill="white"/>
<path d="M66.4388 23.2199V44.1819C66.4388 46.1327 67.7888 47.7288 69.4388 47.7288C71.0888 47.7288 72.4388 46.1327 72.4388 44.1819V21.4076C72.4388 20.3242 72.0675 20.2617 71.0675 19.2227L66.4388 23.2199Z" fill="#FDD05A"/>
<path d="M31.0824 0.840181L1.79766 16.9429C-0.599316 18.2731 -0.599316 21.7736 1.79766 23.1039L31.0824 39.2065C33.1668 40.3617 35.668 40.3617 37.7523 39.2065L65.6823 23.839L72.1975 20.3934C71.8839 19.8226 71.4122 19.3418 70.8236 19.0082L37.7523 0.840181C35.668 -0.280005 33.1668 -0.280005 31.0824 0.840181Z" fill="white"/>
</svg>
